<?xml version="1.0" encoding="UTF-8"?>
<svg id="Capa_1" xmlns="http://www.w3.org/2000/svg" version="1.1" viewBox="0 0 1664.8 1544">
  <!-- Generator: Adobe Illustrator 29.4.0, SVG Export Plug-In . SVG Version: 2.1.0 Build 152)  -->
  <defs>
    <style>
      .st0 {
        fill: #22354c;
      }
    </style>
  </defs>
  <path class="st0" d="M778.4,484.8l-14.4,27,26.4-15.4c109.3-63.8,227.8-107.7,352.2-130.3,160.3-29,310.9-18.9,409-5.3l25.6,3.6L1223.2,10.4l-5.9,3.7c-117.6,75.1-213,157.4-291.6,251.6-56.4,67.9-106,141.6-147.4,219.1Z"/>
  <path class="st0" d="M1658.3,464c-121.5-30.7-316.9-51.5-501.3-18.1-67.7,12.3-134.4,31.8-198.3,58l-25.5,10.4,26.8,6.1c129.1,29,250.6,80.9,361.2,154.2,115.9,76.8,235.5,182.5,328.4,290l15.2,17.6V465.6l-6.6-1.6Z"/>
  <path class="st0" d="M1276.4,742.3c-64-42.5-133-77.6-204.9-104.3l-24.2-9,13.9,21.8c50,78.2,139.2,236.7,175.3,419.6,30.6,154.9,46.5,283.4,47.1,381.9v20.7c.1,0,370.5-370.4,370.5-370.4l-4-5.9c-66-96.9-215.6-249.7-373.7-354.4Z"/>
  <path class="st0" d="M1091.4,879.7l-10.5-24.2-5.9,25.7c-20.8,90.1-64.7,228-155.5,372.6-71,112.7-145.9,205.5-222.5,275.8l-16.4,15h516.4l1.1-7.4c13-90.7-1.6-250.9-41.1-451.1-13.4-67.3-35.5-136.8-65.5-206.4Z"/>
  <path class="st0" d="M886.2,1059.1l14.3-26.9-26.3,15.3c-109.3,63.8-227.8,107.7-352.2,130.3-159.5,29.1-310.4,18.9-409,5.3l-25.6-3.6,354.1,354.2,5.9-3.8c117.9-75.7,213.2-158.1,291.4-251.7,56.7-68,106.3-141.7,147.4-219.2Z"/>
  <path class="st0" d="M573.2,664.3l10.5,24.4,5.9-25.8c20.8-90.2,64.7-228,155.5-372.4,70.4-111.9,145.3-204.8,222.7-276l16.3-15H467.9l-1.1,7.4c-13.2,90.8,1.4,251,41.1,451.1,13,66.1,35,135.6,65.3,206.4Z"/>
  <path class="st0" d="M388.2,801.9h0c64.3,42.4,133.3,77.4,204.9,104.1l24.2,9-13.9-21.8c-50-78.2-139.2-236.7-175.3-419.6-20.9-105.9-46.1-258.1-47.1-381.9l-.2-20.7L10.5,441.4l4,5.9c66.4,97.1,216,250,373.7,354.6Z"/>
  <path class="st0" d="M507.6,1098.1c67.9-12.3,134.7-31.9,198.5-58l25.6-10.5-27-6c-128.5-28.6-250.1-80.5-361.4-154.2-116.2-76.8-235.8-182.5-328.2-290l-15.2-17.7v516.7l6.5,1.6c88.4,22.3,198,35.1,300.8,35.1s137.8-5.8,200.3-17.1Z"/>
</svg>